<svg width="481" height="247" viewBox="0 0 481 247" fill="none" xmlns="http://www.w3.org/2000/svg">
<g filter="url(#filter0_d_557_2)">
<rect x="20" y="13" width="441" height="202" rx="28" fill="#84CCE8"/>
<rect x="22.5" y="15.5" width="436" height="197" rx="25.5" stroke="white" stroke-width="5"/>
</g>
<path d="M131.934 91.3C130.494 88.5056 127.912 86.2193 124.186 84.4411C120.46 82.5781 116.522 81.6467 112.373 81.6467C108.224 81.6467 104.667 82.8322 101.704 85.2032C98.8247 87.5741 97.3852 90.7919 97.3852 94.8564C97.3852 98.8363 98.4437 101.969 100.561 104.256C102.762 106.457 105.472 108.024 108.69 108.955C111.907 109.802 115.422 110.861 119.232 112.131C123.043 113.401 126.557 114.713 129.775 116.068C132.992 117.423 135.66 119.752 137.777 123.054C139.978 126.357 141.079 130.337 141.079 134.994C141.079 139.651 140.232 143.673 138.539 147.06C136.845 150.363 134.559 152.946 131.68 154.808C126.091 158.45 119.698 160.27 112.5 160.27C105.387 160.27 99.2904 159.127 94.2098 156.841C89.2138 154.47 86.7158 151.633 86.7158 148.331C86.7158 146.383 87.7742 144.732 89.8912 143.377C90.5686 142.954 91.6694 142.361 93.1936 141.599C94.8025 144.732 97.6816 147.314 101.831 149.347C106.065 151.294 110.426 152.268 114.914 152.268C119.486 152.268 123.466 150.998 126.853 148.458C130.24 145.833 131.934 142.318 131.934 137.915C131.934 133.512 130.41 130.167 127.361 127.881C124.397 125.51 120.756 123.732 116.438 122.546C112.204 121.361 107.928 120.048 103.609 118.609C99.3751 117.169 95.734 114.756 92.6856 111.369C89.7218 107.897 88.24 103.324 88.24 97.6508C88.24 89.8604 90.7803 83.8906 95.861 79.7414C101.026 75.5922 107.589 73.5176 115.549 73.5176C121.391 73.5176 126.768 74.5337 131.68 76.566C136.676 78.5983 139.174 81.3926 139.174 84.9491C139.174 88.3362 136.76 90.4532 131.934 91.3ZM230.953 116.83C230.953 130.04 227.397 140.583 220.284 148.458C213.256 156.333 203.772 160.27 191.832 160.27C179.977 160.27 170.536 156.333 163.507 148.458C156.479 140.583 152.965 130.04 152.965 116.83C152.965 103.621 156.479 93.1205 163.507 85.3302C170.536 77.4551 179.977 73.5176 191.832 73.5176C203.772 73.5176 213.256 77.4551 220.284 85.3302C227.397 93.1205 230.953 103.621 230.953 116.83ZM213.933 93.5863C211.816 89.8604 208.852 86.8967 205.042 84.6951C201.231 82.4088 196.871 81.2656 191.959 81.2656C183.237 81.2656 176.294 84.2717 171.128 90.2838C165.963 96.2113 163.38 103.79 163.38 113.02C163.38 123.097 165.497 132.03 169.731 139.82C171.848 143.716 174.77 146.806 178.495 149.093C182.306 151.379 186.709 152.522 191.705 152.522C200.85 152.522 207.879 149.474 212.79 143.377C217.786 137.195 220.284 129.236 220.284 119.498C220.284 109.675 218.167 101.038 213.933 93.5863ZM246.185 151.76L246.439 130.548V104.256C246.439 92.3161 246.142 82.4935 245.549 74.7878C246.989 74.5337 248.725 74.4067 250.757 74.4067C254.906 74.4067 256.981 76.0156 256.981 79.2334C256.981 79.7414 256.896 81.435 256.727 84.314C256.219 93.1205 255.965 100.911 255.965 107.685V119.117C255.965 136.73 256.261 147.399 256.854 151.125C260.41 151.294 263.205 151.379 265.237 151.379C278.447 151.379 286.957 150.405 290.768 148.458C291.36 150.236 291.657 152.014 291.657 153.792C291.657 155.486 291.276 156.671 290.513 157.349C289.074 158.619 282.935 159.254 272.096 159.254C261.257 159.254 254.61 159.169 252.154 159C249.783 158.915 248.174 158.323 247.328 157.222C246.566 156.121 246.185 154.3 246.185 151.76ZM300.003 152.268C301.189 144.562 301.824 131.818 301.908 114.036C301.993 96.2536 301.485 83.2556 300.384 75.0418C305.465 74.0257 311.646 73.5176 318.929 73.5176C326.296 73.5176 332.604 74.2374 337.854 75.6769C343.104 77.1164 347.888 79.445 352.207 82.6628C356.61 85.7959 359.997 90.2415 362.368 95.9996C364.824 101.758 366.052 108.659 366.052 116.703C366.052 129.405 362.665 139.863 355.89 148.077C349.116 156.206 339.717 160.27 327.693 160.27C315.668 160.27 306.439 157.603 300.003 152.268ZM311.053 81.7737C311.392 87.6165 311.562 97.2274 311.562 110.607C311.562 123.986 310.969 136.433 309.783 147.95C314.356 150.998 319.648 152.522 325.66 152.522C331.673 152.522 336.626 151.506 340.521 149.474C344.417 147.441 347.423 144.689 349.54 141.218C353.435 134.782 355.382 127.457 355.382 119.244C355.382 106.627 352.249 97.1427 345.983 90.7919C339.717 84.441 330.783 81.2656 319.183 81.2656C317.32 81.2656 314.61 81.435 311.053 81.7737Z" fill="white"/>
<mask id="mask0_557_2" style="mask-type:alpha" maskUnits="userSpaceOnUse" x="25" y="18" width="431" height="201">
<rect x="27.8516" y="20.5" width="425.296" height="196" rx="21.5" fill="#84CCE8" stroke="white" stroke-width="5"/>
</mask>
<g mask="url(#mask0_557_2)">
<g filter="url(#filter1_f_557_2)">
<rect x="-8.07031" y="-19.8633" width="512.804" height="53.7327" fill="#90DDFB"/>
</g>
</g>
<defs>
<filter id="filter0_d_557_2" x="0" y="5" width="481" height="242" filterUnits="userSpaceOnUse" color-interpolation-filters="sRGB">
<feFlood flood-opacity="0" result="BackgroundImageFix"/>
<feColorMatrix in="SourceAlpha" type="matrix" values="0 0 0 0 0 0 0 0 0 0 0 0 0 0 0 0 0 0 127 0" result="hardAlpha"/>
<feOffset dy="12"/>
<feGaussianBlur stdDeviation="10"/>
<feComposite in2="hardAlpha" operator="out"/>
<feColorMatrix type="matrix" values="0 0 0 0 0 0 0 0 0 0 0 0 0 0 0 0 0 0 0.25 0"/>
<feBlend mode="normal" in2="BackgroundImageFix" result="effect1_dropShadow_557_2"/>
<feBlend mode="normal" in="SourceGraphic" in2="effect1_dropShadow_557_2" result="shape"/>
</filter>
<filter id="filter1_f_557_2" x="-12.0703" y="-23.8633" width="520.804" height="61.7327" filterUnits="userSpaceOnUse" color-interpolation-filters="sRGB">
<feFlood flood-opacity="0" result="BackgroundImageFix"/>
<feBlend mode="normal" in="SourceGraphic" in2="BackgroundImageFix" result="shape"/>
<feGaussianBlur stdDeviation="2" result="effect1_foregroundBlur_557_2"/>
</filter>
</defs>
</svg>
